<svg xmlns="http://www.w3.org/2000/svg" viewBox="0 0 64 64"><g fill="#334155"><path d="M10 14 C6 10 5 6 8 5 C11 4 13 7 14 10 L18 16 C16 14 12 13 10 14 Z"/><path d="M54 14 C58 10 59 6 56 5 C53 4 51 7 50 10 L46 16 C48 14 52 13 54 14 Z"/><ellipse cx="32" cy="36" rx="20" ry="18"/><ellipse cx="32" cy="36" rx="20" ry="18" fill="#334155"/><path d="M13 28 C13 18 20 12 32 12 C44 12 51 18 51 28 C51 44 44 54 32 54 C20 54 13 44 13 28 Z"/><path d="M24 38 C24 34 27 32 32 32 C37 32 40 34 40 38 C40 44 37 48 32 48 C27 48 24 44 24 38 Z" fill-rule="evenodd"/><circle cx="24" cy="29" r="4"/><circle cx="40" cy="29" r="4"/><circle cx="24" cy="29" r="2" fill="white"/><circle cx="40" cy="29" r="2" fill="white"/><ellipse cx="32" cy="42" rx="5" ry="3"/><path d="M27 42 Q32 46 37 42 Q32 45 27 42 Z" fill="white"/><path d="M8 5 C5 4 4 8 7 12 L12 18 C10 15 8 10 10 8 C8 7 8 6 8 5 Z"/><path d="M56 5 C59 4 60 8 57 12 L52 18 C54 15 56 10 54 8 C56 7 56 6 56 5 Z"/></g></svg>