<svg xmlns="http://www.w3.org/2000/svg" viewBox="0 0 64 64"><path fill="#334155" fill-rule="evenodd" d="M18.5 8C14.358 8 11 11.358 11 15.5c0 2.21.968 4.196 2.5 5.566V42.934C11.968 44.304 11 46.29 11 48.5 11 52.642 14.358 56 18.5 56c2.21 0 4.196-.968 5.566-2.5h23.868C49.304 55.032 51.29 56 53.5 56 57.642 56 61 52.642 61 48.5c0-2.21-.968-4.196-2.5-5.566V21.066C60.032 19.696 61 17.71 61 15.5 61 11.358 57.642 8 53.5 8c-2.21 0-4.196.968-5.566 2.5H24.066C22.696 8.968 20.71 8 18.5 8zm0 4c2.071 0 3.75 1.679 3.75 3.75 0 1.396-.768 2.614-1.906 3.264A2 2 0 0 0 19.5 20.75v22.5a2 2 0 0 0 .844 1.636C21.482 45.536 22.25 46.754 22.25 48.25c0 2.071-1.679 3.75-3.75 3.75S14.75 50.321 14.75 48.25c0-1.396.768-2.614 1.906-3.264A2 2 0 0 0 17.5 43.25v-22.5a2 2 0 0 0-.844-1.636C15.518 18.464 14.75 17.246 14.75 15.75 14.75 13.679 16.429 12 18.5 12zm35 0c2.071 0 3.75 1.679 3.75 3.75 0 1.396-.768 2.614-1.906 3.264A2 2 0 0 0 54.5 20.75v22.5a2 2 0 0 0 .844 1.636c1.138.65 1.906 1.868 1.906 3.364 0 2.071-1.679 3.75-3.75 3.75s-3.75-1.679-3.75-3.75c0-1.496.768-2.714 1.906-3.364A2 2 0 0 0 52.5 43.25v-22.5a2 2 0 0 0-.844-1.736C50.518 18.364 49.75 17.146 49.75 15.75c0-2.071 1.679-3.75 3.75-3.75zM24.5 15h15v3h-15v-3zm0 31h15v3h-15v-3zM22.5 21.5h19a1.5 1.5 0 0 1 0 3h-19a1.5 1.5 0 0 1 0-3zm0 18h19a1.5 1.5 0 0 1 0 3h-19a1.5 1.5 0 0 1 0-3zm-1-13h21v8h-21v-8zm4 2v4h13v-4h-13z"/></svg>