<svg xmlns="http://www.w3.org/2000/svg" viewBox="0 0 128 128">
  <defs>
    <radialGradient id="g_cheek_main" cx="42%" cy="38%" r="58%" fx="38%" fy="32%">
      <stop offset="0%" stop-color="#e8453a"/>
      <stop offset="35%" stop-color="#c0231a"/>
      <stop offset="70%" stop-color="#961610"/>
      <stop offset="100%" stop-color="#6b0c09"/>
    </radialGradient>
    <radialGradient id="g_cheek_shine" cx="35%" cy="28%" r="40%">
      <stop offset="0%" stop-color="#f0705a" stop-opacity="0.7"/>
      <stop offset="100%" stop-color="#c0231a" stop-opacity="0"/>
    </radialGradient>
    <linearGradient id="g_cheek_shadow" x1="0%" y1="0%" x2="60%" y2="100%">
      <stop offset="0%" stop-color="#7a1008" stop-opacity="0"/>
      <stop offset="100%" stop-color="#3d0504" stop-opacity="0.55"/>
    </linearGradient>
    <radialGradient id="g_cheek_fat1" cx="50%" cy="50%" r="50%">
      <stop offset="0%" stop-color="#f8f0e0"/>
      <stop offset="60%" stop-color="#e8d8b8"/>
      <stop offset="100%" stop-color="#c8b898" stop-opacity="0.6"/>
    </radialGradient>
    <radialGradient id="g_cheek_fat2" cx="50%" cy="50%" r="50%">
      <stop offset="0%" stop-color="#f5ece0"/>
      <stop offset="70%" stop-color="#ddc8a8"/>
      <stop offset="100%" stop-color="#bda888" stop-opacity="0.5"/>
    </radialGradient>
    <radialGradient id="g_cheek_fat3" cx="50%" cy="50%" r="50%">
      <stop offset="0%" stop-color="#faf4ea"/>
      <stop offset="60%" stop-color="#e5d0b0"/>
      <stop offset="100%" stop-color="#c0a880" stop-opacity="0.5"/>
    </radialGradient>
    <linearGradient id="g_cheek_edge" x1="0%" y1="0%" x2="100%" y2="100%">
      <stop offset="0%" stop-color="#e84030"/>
      <stop offset="100%" stop-color="#8a1008"/>
    </linearGradient>
    <radialGradient id="g_cheek_juicy" cx="60%" cy="70%" r="35%">
      <stop offset="0%" stop-color="#e03020" stop-opacity="0.5"/>
      <stop offset="100%" stop-color="#a01810" stop-opacity="0"/>
    </radialGradient>
  </defs>

  <!-- Main meat chunk - rounded cheek shape -->
  <path d="M22,52 C18,38 24,22 38,16 C52,10 70,12 82,20 C96,28 108,40 108,58 C108,76 100,94 86,102 C72,110 52,112 38,104 C24,96 16,80 16,66 C16,62 18,56 22,52 Z" fill="url(#g_cheek_main)"/>

  <!-- Edge highlight for volume -->
  <path d="M22,52 C18,38 24,22 38,16 C52,10 70,12 82,20 C96,28 108,40 108,58 C108,76 100,94 86,102 C72,110 52,112 38,104 C24,96 16,80 16,66 C16,62 18,56 22,52 Z" fill="none" stroke="#5a0c08" stroke-width="2.5" stroke-opacity="0.7"/>

  <!-- Shadow overlay for depth -->
  <path d="M22,52 C18,38 24,22 38,16 C52,10 70,12 82,20 C96,28 108,40 108,58 C108,76 100,94 86,102 C72,110 52,112 38,104 C24,96 16,80 16,66 C16,62 18,56 22,52 Z" fill="url(#g_cheek_shadow)"/>

  <!-- Shine/highlight -->
  <path d="M22,52 C18,38 24,22 38,16 C52,10 70,12 82,20 C96,28 108,40 108,58 C108,76 100,94 86,102 C72,110 52,112 38,104 C24,96 16,80 16,66 C16,62 18,56 22,52 Z" fill="url(#g_cheek_shine)"/>

  <!-- Marbling fat veins - organic curves -->
  <!-- Fat vein 1 - diagonal upper -->
  <path d="M34,30 C42,28 50,35 58,33 C66,31 72,36 80,34" fill="none" stroke="url(#g_cheek_fat1)" stroke-width="4" stroke-linecap="round" stroke-opacity="0.88"/>
  <path d="M34,30 C42,28 50,35 58,33 C66,31 72,36 80,34" fill="none" stroke="#f8f0e0" stroke-width="2" stroke-linecap="round" stroke-opacity="0.6"/>

  <!-- Fat vein 2 - middle wavy -->
  <path d="M26,56 C36,52 46,60 56,56 C66,52 76,58 88,55" fill="none" stroke="url(#g_cheek_fat2)" stroke-width="5" stroke-linecap="round" stroke-opacity="0.82"/>
  <path d="M26,56 C36,52 46,60 56,56 C66,52 76,58 88,55" fill="none" stroke="#faf4ea" stroke-width="2.5" stroke-linecap="round" stroke-opacity="0.55"/>

  <!-- Fat vein 3 - short lower -->
  <path d="M32,76 C42,73 54,80 66,76 C76,73 84,78 94,76" fill="none" stroke="url(#g_cheek_fat3)" stroke-width="3.5" stroke-linecap="round" stroke-opacity="0.78"/>
  <path d="M32,76 C42,73 54,80 66,76 C76,73 84,78 94,76" fill="none" stroke="#f8f2e6" stroke-width="1.8" stroke-linecap="round" stroke-opacity="0.5"/>

  <!-- Small fat blob upper left -->
  <ellipse cx="36" cy="42" rx="7" ry="4" fill="#f0e4cc" fill-opacity="0.7" transform="rotate(-20,36,42)"/>
  <ellipse cx="36" cy="42" rx="5" ry="2.5" fill="#faf6ee" fill-opacity="0.5" transform="rotate(-20,36,42)"/>

  <!-- Small fat blob middle right -->
  <ellipse cx="90" cy="65" rx="8" ry="4.5" fill="#ede0c8" fill-opacity="0.65" transform="rotate(15,90,65)"/>
  <ellipse cx="90" cy="65" rx="5.5" ry="3" fill="#faf6f0" fill-opacity="0.45" transform="rotate(15,90,65)"/>

  <!-- Small fat blob lower -->
  <ellipse cx="55" cy="90" rx="9" ry="4" fill="#f0e6d0" fill-opacity="0.6" transform="rotate(-8,55,90)"/>

  <!-- Juicy sheen bottom -->
  <path d="M22,52 C18,38 24,22 38,16 C52,10 70,12 82,20 C96,28 108,40 108,58 C108,76 100,94 86,102 C72,110 52,112 38,104 C24,96 16,80 16,66 C16,62 18,56 22,52 Z" fill="url(#g_cheek_juicy)"/>

  <!-- Top highlight gloss -->
  <ellipse cx="50" cy="36" rx="22" ry="12" fill="#ff9080" fill-opacity="0.22" transform="rotate(-18,50,36)"/>
  <ellipse cx="46" cy="32" rx="12" ry="6" fill="#ffbdb5" fill-opacity="0.18" transform="rotate(-18,46,32)"/>
</svg>