<svg xmlns="http://www.w3.org/2000/svg" viewBox="0 0 64 64"><path fill="#334155" fill-rule="evenodd" d="M38.5 7c-3.5 0-6.5 1.8-8.2 4.5-1.2 1.9-1.8 4.2-1.5 6.5L11.5 35.2C9.3 37.4 8 40.4 8 43.5 8 50.4 13.6 56 20.5 56c3.1 0 6.1-1.3 8.3-3.5l17.2-17.3c2.3.3 4.6-.3 6.5-1.5C55.2 32 57 29 57 25.5 57 18.1 51.4 12 44.5 12c-.7 0-1.4.1-2.1.2C41.4 8.7 40 7 38.5 7zm1 4c.5 0 1 .3 1.5.8.4.5.6 1.2.4 1.9-.2.6-.7 1.1-1.3 1.3-.8.3-1.7.1-2.3-.5-.5-.5-.7-1.2-.5-1.9.3-.9 1.1-1.6 2.2-1.6zM20.5 44c1.9 0 3.5 1.6 3.5 3.5S22.4 51 20.5 51 17 49.4 17 47.5s1.6-3.5 3.5-3.5z"/><path fill="#334155" d="M29.8 18c.8 1.5 1.2 3.2 1.2 5 0 1.2-.2 2.4-.6 3.5l3.2-3.2c-.3-1.8-.1-3.6.5-5.3l-4.3 0z"/></svg>