<svg xmlns="http://www.w3.org/2000/svg" viewBox="0 0 64 64"><g fill="#334155"><path d="M28 38 C27 36 25 33 24 30 C23 27 23 24 24 22 C25 20 27 19 29 20 C31 21 31 24 30 27 C29 30 29 34 30 37 Z"/><path d="M36 38 C37 36 39 33 40 30 C41 27 41 24 40 22 C39 20 37 19 35 20 C33 21 33 24 34 27 C35 30 35 34 34 37 Z"/><path d="M32 39 C31 37 31 34 31 31 C31 28 31 25 32 23 C33 25 33 28 33 31 C33 34 33 37 33 39 Z" fill-rule="evenodd"/><path d="M20 44 C18 42 15 40 13 38 C11 36 10 34 11 32 C12 30 14 30 16 31 C18 32 20 35 21 38 C22 41 23 44 24 46 Z"/><path d="M44 44 C46 42 49 40 51 38 C53 36 54 34 53 32 C52 30 50 30 48 31 C46 32 44 35 43 38 C42 41 41 44 40 46 Z"/><ellipse cx="32" cy="41" rx="9" ry="5"/><path d="M23 46 C24 44 26 42 28 41 C30 40 32 40 32 40 C32 40 34 40 36 41 C38 42 40 44 41 46 C39 47 36 48 32 48 C28 48 25 47 23 46 Z"/><path d="M16 52 C14 50 13 48 13 46 C13 44 14 43 15 43 C16 43 17 44 18 45 C19 46 20 48 21 50 C22 52 23 54 24 55 C22 55 18 54 16 52 Z"/><path d="M24 55 C23 53 22 51 22 49 C22 47 23 46 24 46 C25 46 26 47 27 49 C28 51 28 53 28 55 C27 56 25 56 24 55 Z"/><path d="M32 56 C31 54 31 52 31 50 C31 48 31 47 32 46 C33 47 33 48 33 50 C33 52 33 54 33 56 C32.5 56.5 31.5 56.5 32 56 Z"/><path d="M40 55 C41 53 42 51 42 49 C42 47 41 46 40 46 C39 46 38 47 37 49 C36 51 36 53 36 55 C37 56 39 56 40 55 Z"/><path d="M48 52 C50 50 51 48 51 46 C51 44 50 43 49 43 C48 43 47 44 46 45 C45 46 44 48 43 50 C42 52 41 54 40 55 C42 55 46 54 48 52 Z"/></g></svg>