<svg xmlns="http://www.w3.org/2000/svg" viewBox="0 0 64 64"><path fill="#334155" fill-rule="evenodd" d="M34 7c-2.2 0-4 1.8-4 4 0 .8.2 1.5.6 2.1C28.1 14.5 26 17.6 26 21v1.2C20.8 23.5 17 28 17 33.5c0 3.3 1.4 6.3 3.6 8.4V47h-2v4h6v-4h-1.3c-.1-.3-.2-.7-.3-1 .6.1 1.3.2 2 .2s1.4-.1 2-.2c-.1.3-.2.7-.3 1H25v4h6v-4h-2v-5.2c.6.1 1.3.2 2 .2 7.2 0 13-5.8 13-13 0-5.5-3.5-10.2-8.4-12-.1-.3-.1-.7-.1-1 0-2.2 1.3-4.1 3.2-5l.3-.1c.5.7 1.3 1.1 2 1.1 1.7 0 3-1.3 3-3s-1.3-3-3-3c-.9 0-1.7.4-2.2 1H34zm-1 4c0-1.1.9-2 2-2s2 .9 2 2-.9 2-2 2-2-.9-2-2zM8 35c0-2.2 1.8-4 4-4h4v8h-4c-2.2 0-4-1.8-4-4z"/><circle cx="37" cy="30" r="2.5" fill="white"/></svg>