<svg xmlns="http://www.w3.org/2000/svg" viewBox="0 0 64 64"><g fill="#334155"><path d="M18 8 C12 10 8 16 9 23 C10 29 14 33 19 35 L22 36 L20 42 C19 46 20 50 23 52 C25 54 28 54 30 52 L32 50 C34 48 34 45 32 43 L30 41 L35 36 C40 32 44 26 43 19 C42 13 37 8 31 7 C27 6 22 6 18 8 Z M19 12 C22 10 27 10 30 12 C34 14 37 19 36 24 C35 28 32 32 28 34 L24 36 L22 34 C18 31 15 27 15 22 C15 17 16 14 19 12 Z"/><ellipse cx="23" cy="47" rx="4" ry="6" transform="rotate(-20 23 47)"/><path d="M28 22 C28 20 30 18 32 19 C34 20 35 23 33 25 C31 27 28 26 28 22 Z" fill-rule="evenodd"/></g></svg>