<svg xmlns="http://www.w3.org/2000/svg" viewBox="0 0 64 64"><g fill="#334155" fill-rule="evenodd"><ellipse cx="32" cy="36" rx="14" ry="11"/><ellipse cx="32" cy="33" rx="10" ry="8"/><circle cx="25" cy="28" r="3"/><circle cx="39" cy="28" r="3"/><circle cx="25" cy="28" r="1.2" fill="#fff" fill-rule="nonzero"/><circle cx="39" cy="28" r="1.2" fill="#fff" fill-rule="nonzero"/><path d="M18 38 Q10 34 8 28 Q7 22 12 20 Q14 19 15 21 Q13 23 14 27 Q15 31 20 34 Z"/><path d="M46 38 Q54 34 56 28 Q57 22 52 20 Q50 19 49 21 Q51 23 50 27 Q49 31 44 34 Z"/><path d="M12 20 Q9 14 13 10 Q16 7 19 10 Q17 12 16 16 Q15 19 15 21 Z"/><path d="M52 20 Q55 14 51 10 Q48 7 45 10 Q47 12 48 16 Q49 19 49 21 Z"/><path d="M20 40 Q16 46 15 52 Q18 53 20 48 Q21 44 23 42 Z"/><path d="M26 42 Q24 48 25 54 Q28 54 29 48 Q29 44 28 42 Z"/><path d="M44 40 Q48 46 49 52 Q46 53 44 48 Q43 44 41 42 Z"/><path d="M38 42 Q40 48 39 54 Q36 54 35 48 Q35 44 36 42 Z"/><path d="M29 33 Q32 35 35 33 Q34 37 32 37 Q30 37 29 33 Z"/></g></svg>