<svg xmlns="http://www.w3.org/2000/svg" viewBox="0 0 64 64"><g fill="#334155"><ellipse cx="32" cy="38" rx="13" ry="16"/><ellipse cx="20" cy="22" rx="6" ry="8"/><ellipse cx="44" cy="22" rx="6" ry="8"/><ellipse cx="14" cy="36" rx="5" ry="7"/><ellipse cx="50" cy="36" rx="5" ry="7"/><path d="M32 54 C26 54 19 50 19 44 L45 44 C45 50 38 54 32 54Z"/><path fill-rule="evenodd" d="M32 28 C26 28 19 33 19 38 L19 44 C19 50 26 54 32 54 C38 54 45 50 45 44 L45 38 C45 33 38 28 32 28Z M29 37 C29 35.3 30.3 34 32 34 C33.7 34 35 35.3 35 37 L35 41 C35 42.7 33.7 44 32 44 C30.3 44 29 42.7 29 41Z"/></g></svg>