<svg xmlns="http://www.w3.org/2000/svg" viewBox="0 0 64 64"><g fill="#334155"><path d="M20 10 C16 10 13 12 12 15 C10 12 7 11 6 13 C5 15 7 17 9 18 C8 20 8 23 10 26 C11 28 13 30 15 31 L15 34 C15 36 16 38 17 39 L16 44 C15 46 15 48 17 49 C19 50 21 49 22 47 L23 44 L41 44 L42 47 C43 49 45 50 47 49 C49 48 49 46 48 44 L47 39 C48 38 49 36 49 34 L49 31 C51 30 53 28 54 26 C56 23 56 20 55 18 C57 17 59 15 58 13 C57 11 54 12 52 15 C51 12 48 10 44 10 Z" fill-rule="evenodd"/><path d="M20 10 C16 10 13 12 12 15 C10 12 7 11 6 13 C5 15 7 17 9 18 C8 20 8 23 10 26 C11 28 13 30 15 31 L15 34 C15 36 16 38 17 39 L16 44 C15 46 15 48 17 49 C19 50 21 49 22 47 L23 44 L41 44 L42 47 C43 49 45 50 47 49 C49 48 49 46 48 44 L47 39 C48 38 49 36 49 34 L49 31 C51 30 53 28 54 26 C56 23 56 20 55 18 C57 17 59 15 58 13 C57 11 54 12 52 15 C51 12 48 10 44 10 Z"/><ellipse cx="32" cy="28" rx="14" ry="16"/><circle cx="26" cy="26" r="2.5" fill="white"/><circle cx="38" cy="26" r="2.5" fill="white"/><circle cx="27" cy="27" r="1" fill="#334155"/><circle cx="39" cy="27" r="1" fill="#334155"/><ellipse cx="32" cy="34" rx="4" ry="2.5"/><path d="M29 38 C29 38 28 43 27 45 C26 47 28 48 30 47 C31 46 31 44 32 44 C33 44 33 46 34 47 C36 48 38 47 37 45 C36 43 35 38 35 38 Z"/><path d="M18 14 C16 11 13 9 11 10 C9 11 9 14 11 17 C13 19 16 20 18 20 Z"/><path d="M46 14 C48 11 51 9 53 10 C55 11 55 14 53 17 C51 19 48 20 46 20 Z"/></g></svg>