<svg xmlns="http://www.w3.org/2000/svg" viewBox="0 0 64 64"><path fill="#334155" fill-rule="evenodd" d="M32 8 C22 8 14 14 11 22 C9 27 9 30 10 33 C8 34 7 36 7 38 C7 41 9 43 12 44 L12 47 C12 49 14 51 16 51 L48 51 C50 51 52 49 52 47 L52 44 C55 43 57 41 57 38 C57 36 56 34 54 33 C55 30 55 27 53 22 C50 14 42 8 32 8 Z M16 44 L48 44 L48 47 C48 47.6 47.6 48 47 48 L17 48 C16.4 48 16 47.6 16 47 Z"/><path fill="#334155" d="M20 22 C20 20 22 18 24 19 C25 16 28 15 30 17 C31 14 35 14 36 17 C38 15 41 16 41 19 C43 18 45 20 44 22 C46 23 46 26 44 27 C43 30 40 31 37 30 C35 32 29 32 27 30 C24 31 21 30 20 27 C18 26 18 23 20 22 Z"/></svg>