<svg xmlns="http://www.w3.org/2000/svg" viewBox="0 0 64 64"><path fill="#334155" fill-rule="evenodd" d="M38 7c-6.075 0-11 4.925-11 11 0 2.08.577 4.024 1.58 5.68L8.5 44.5C7 46 7 49 8.5 50.5L13.5 55.5C15 57 18 57 19.5 55.5L40.32 35.42C41.976 36.423 43.92 37 46 37c8.284 0 13-5.716 13-13 0-6.075-4.925-11-11-11a10.98 10.98 0 0 0-5.14 1.28A11.003 11.003 0 0 0 38 7zm0 4c1.37 0 2.676.262 3.876.737C41.32 13.498 41 15.213 41 17c0 1.787.32 3.502.876 5.263A7 7 0 1 1 38 11zm8 3a2 2 0 1 0 0 4 2 2 0 0 0 0-4z"/></svg>