<svg xmlns="http://www.w3.org/2000/svg" viewBox="0 0 64 64"><g fill="#334155"><ellipse cx="32" cy="28" rx="16" ry="13"/><circle cx="20" cy="22" r="7"/><circle cx="44" cy="22" r="7"/><circle cx="26" cy="17" r="6"/><circle cx="38" cy="17" r="6"/><circle cx="32" cy="15" r="6"/><ellipse cx="32" cy="37" rx="12" ry="7"/><ellipse cx="32" cy="39" rx="9" ry="5"/><path d="M24 42 Q22 50 20 54 Q19 56 21 56 Q23 56 24 54 L26 46 Z"/><path d="M28 43 Q27 51 27 55 Q27 57 29 57 Q31 57 31 55 L31 46 Z"/><path d="M36 43 Q37 51 37 55 Q37 57 39 57 Q41 57 41 55 L37 46 Z"/><path d="M40 42 Q42 50 44 54 Q45 56 43 56 Q41 56 40 54 L38 46 Z"/><ellipse cx="32" cy="36" rx="8" ry="5"/><circle cx="29" cy="34" r="4"/><circle cx="35" cy="34" r="4"/><circle cx="32" cy="32" r="4"/><ellipse cx="32" cy="44" rx="6" ry="3"/><path d="M27 33 Q25 30 24 28 Q26 26 28 28 Q29 31 29 33 Z" fill-rule="evenodd"/><path d="M37 33 Q39 30 40 28 Q38 26 36 28 Q35 31 35 33 Z" fill-rule="evenodd"/><ellipse cx="28" cy="36" rx="3" ry="2"/><ellipse cx="36" cy="36" rx="3" ry="2"/><path d="M29 38 Q32 40 35 38 Q33 42 29 38 Z"/><circle cx="27" cy="33" r="1.5" fill="white"/><circle cx="37" cy="33" r="1.5" fill="white"/><ellipse cx="31" cy="39" rx="1" ry="0.6" fill="white"/><ellipse cx="33" cy="39" rx="1" ry="0.6" fill="white"/></g></svg>