<svg xmlns="http://www.w3.org/2000/svg" viewBox="0 0 64 64"><path fill="#334155" fill-rule="evenodd" d="M54 18c-2.5-4-7-6-12-5.5-2-3.5-5.5-5.5-9.5-5.5-5 0-9 3-10.5 7.5C16 15.5 10 21 10 28c0 5 3 9.5 7.5 11.5C18 44 20 48 23 51c2 2 4.5 3 7 3 3 0 5.5-1.5 7-4 1 .5 2.5 1 4 1 5 0 9-4 9-9 0-1.5-.5-3-1-4.5C52 35 55 31 55 27c0-3.5-1-6.5-1-9zM38 49c-1.5 2.5-4 4-7 3.5-2-.5-4-2-5.5-4-2.5-3-4-6.5-4.5-10.5C17.5 36 14 32.5 14 28c0-5.5 4.5-10 10-10 .5 0 1 0 1.5.1C27 14.5 30 12.5 33 12.5c3.5 0 6.5 2 8 5 4.5-.5 8.5 2 10 6 .5 1.5 1 4 1 6.5 0 3.5-2.5 7-5.5 8.5.5 1.5 1 3 1 4.5 0 3.5-2.5 6.5-6 7-1.5 0-2.5-.5-3.5-1z"/><path fill="#334155" d="M30 20c-3.5 1-6.5 4-7 7.5-.5 3.5 1 7 4 9 1 .5 2 .5 2.5 0 .5-.5.5-1.5 0-2-2-1.5-3-4-2.5-6.5.5-2.5 2.5-4.5 5-5.5 1-.5 1.5-1.5 1-2.5-.5-.5-2-1-3 0z"/></svg>