<svg xmlns="http://www.w3.org/2000/svg" viewBox="0 0 128 128">
  <defs>
    <radialGradient id="g_meat_main" cx="45%" cy="40%" r="58%" fx="35%" fy="30%">
      <stop offset="0%" stop-color="#c15f50"/>
      <stop offset="35%" stop-color="#a23f34"/>
      <stop offset="70%" stop-color="#822a20"/>
      <stop offset="100%" stop-color="#5e1a13"/>
    </radialGradient>
    <radialGradient id="g_meat_sheen" cx="38%" cy="26%" r="46%">
      <stop offset="0%" stop-color="#ffffff" stop-opacity="0.14"/>
      <stop offset="70%" stop-color="#ffffff" stop-opacity="0.02"/>
      <stop offset="100%" stop-color="#ffffff" stop-opacity="0"/>
    </radialGradient>
    <radialGradient id="g_meat_vignette" cx="50%" cy="45%" r="58%">
      <stop offset="62%" stop-color="#000000" stop-opacity="0"/>
      <stop offset="100%" stop-color="#2e0a07" stop-opacity="0.30"/>
    </radialGradient>
    <linearGradient id="g_meat_fat1" x1="0%" y1="0%" x2="100%" y2="100%">
      <stop offset="0%" stop-color="#ece1cd"/>
      <stop offset="50%" stop-color="#e3cdba"/>
      <stop offset="100%" stop-color="#c6ab81"/>
    </linearGradient>
    <linearGradient id="g_meat_fat2" x1="0%" y1="0%" x2="100%" y2="100%">
      <stop offset="0%" stop-color="#e6d4bd"/>
      <stop offset="100%" stop-color="#c6ab81"/>
    </linearGradient>
    <radialGradient id="g_meat_bone" cx="50%" cy="35%" r="55%">
      <stop offset="0%" stop-color="#f7efdd"/>
      <stop offset="40%" stop-color="#ece0c6"/>
      <stop offset="80%" stop-color="#dccba8"/>
      <stop offset="100%" stop-color="#cbb790"/>
    </radialGradient>
    <radialGradient id="g_meat_bone_end" cx="40%" cy="35%" r="55%">
      <stop offset="0%" stop-color="#f8f0df"/>
      <stop offset="50%" stop-color="#e9dcbf"/>
      <stop offset="100%" stop-color="#c8b48c"/>
    </radialGradient>
    <radialGradient id="g_meat_shadow" cx="50%" cy="90%" r="50%">
      <stop offset="0%" stop-color="#1a0a0a" stop-opacity="0.24"/>
      <stop offset="100%" stop-color="#1a0a0a" stop-opacity="0"/>
    </radialGradient>
    <filter id="soft" x="-30%" y="-30%" width="160%" height="160%">
      <feGaussianBlur stdDeviation="1.0"/>
    </filter>
    <clipPath id="clip_meat">
      <path d="M68 22 C80 18, 102 22, 112 32 C120 40, 118 58, 115 68 C112 78, 106 88, 98 95 C90 102, 78 106, 68 104 C62 103, 60 98, 60 92 L60 65 C60 62, 62 60, 65 60 L65 27 C65 24, 66 22, 68 22 Z"/>
      <path d="M60 65 C60 62, 58 60, 55 60 L55 72 C44 72, 32 76, 24 84 C18 90, 16 100, 20 106 C26 112, 42 112, 56 108 C62 106, 64 103, 64 98 L64 65 Z"/>
    </clipPath>
  </defs>

  <!-- Drop shadow -->
  <ellipse cx="64" cy="112" rx="44" ry="7" fill="url(#g_meat_shadow)"/>

  <!-- Bone shaft (T-bone vertical bar) -->
  <rect x="58" y="14" width="13" height="62" rx="5" ry="5" fill="url(#g_meat_bone)" stroke="#b0a078" stroke-width="1"/>

  <!-- Bone top cap (round end) -->
  <ellipse cx="64.5" cy="17" rx="9" ry="9" fill="url(#g_meat_bone_end)" stroke="#b0a078" stroke-width="1"/>

  <!-- Bone highlight top cap -->
  <ellipse cx="62" cy="14" rx="4" ry="3" fill="#fffdf6" fill-opacity="0.28"/>

  <!-- Bone horizontal bar (T crossbar) -->
  <rect x="30" y="56" width="68" height="12" rx="5" ry="5" fill="url(#g_meat_bone)" stroke="#b0a078" stroke-width="1"/>

  <!-- Bone crossbar highlight -->
  <rect x="33" y="57.5" width="62" height="4" rx="2" fill="#fffdf6" fill-opacity="0.24"/>

  <!-- Main meat body - large loin section (right of bone) -->
  <path d="M68 22 C80 18, 102 22, 112 32 C120 40, 118 58, 115 68 C112 78, 106 88, 98 95 C90 102, 78 106, 68 104 C62 103, 60 98, 60 92 L60 65 C60 62, 62 60, 65 60 L65 27 C65 24, 66 22, 68 22 Z" fill="url(#g_meat_main)" stroke="#5e1a13" stroke-width="1.2"/>

  <!-- Main meat body - smaller tenderloin section (left of bone) -->
  <path d="M60 65 C60 62, 58 60, 55 60 L55 72 C44 72, 32 76, 24 84 C18 90, 16 100, 20 106 C26 112, 42 112, 56 108 C62 106, 64 103, 64 98 L64 65 Z" fill="url(#g_meat_main)" stroke="#5e1a13" stroke-width="1.2"/>

  <!-- Fat cap on loin - outer edge top -->
  <path d="M68 22 C78 17, 100 20, 112 32 C116 36, 116 34, 113 30 C103 18, 82 14, 68 18 Z" fill="url(#g_meat_fat1)" stroke="#bfa274" stroke-width="0.8"/>

  <!-- Fat cap on loin - right side -->
  <path d="M112 32 C120 40, 120 60, 116 70 C118 58, 118 40, 113 32 Z" fill="url(#g_meat_fat2)" stroke="#bfa274" stroke-width="0.7"/>

  <!-- Fat cap tenderloin bottom -->
  <path d="M24 84 C18 90, 15 100, 20 107 C16 100, 18 90, 24 84 Z" fill="url(#g_meat_fat1)" stroke="#bfa274" stroke-width="0.7"/>

  <!-- Marmoleo natural: manchas suaves desenfocadas (grasa), recortadas a la carne -->
  <g clip-path="url(#clip_meat)" filter="url(#soft)" opacity="0.5">
    <path d="M72 30 C80 34, 88 30, 95 36 C88 32, 80 36, 72 30 Z" fill="#ece1cd"/>
    <path d="M75 44 C84 46, 96 42, 104 50 C96 44, 84 48, 75 44 Z" fill="#efe0d3"/>
    <path d="M70 58 C80 56, 92 60, 100 68 C90 62, 79 58, 70 58 Z" fill="#e3cdba"/>
    <path d="M80 75 C90 72, 102 76, 108 84 C98 78, 88 74, 80 75 Z" fill="#ece1cd"/>
    <path d="M68 88 C76 84, 88 88, 96 96 C86 90, 75 86, 68 88 Z" fill="#e3cdba"/>
    <path d="M40 80 C46 76, 54 80, 56 88 C53 82, 46 78, 40 80 Z" fill="#efe0d3"/>
    <path d="M32 90 C38 86, 48 90, 52 98 C46 92, 37 88, 32 90 Z" fill="#e3cdba"/>
    <ellipse cx="88" cy="52" rx="6" ry="3" transform="rotate(-18 88 52)" fill="#ece1cd"/>
    <ellipse cx="40" cy="92" rx="5" ry="2.6" fill="#ece1cd"/>
  </g>

  <!-- Vignette (volumen mate sin plastico) -->
  <path d="M68 22 C80 18, 102 22, 112 32 C120 40, 118 58, 115 68 C112 78, 106 88, 98 95 C90 102, 78 106, 68 104 C62 103, 60 98, 60 92 L60 65 C60 62, 62 60, 65 60 L65 27 C65 24, 66 22, 68 22 Z" fill="url(#g_meat_vignette)"/>
  <path d="M60 65 C60 62, 58 60, 55 60 L55 72 C44 72, 32 76, 24 84 C18 90, 16 100, 20 106 C26 112, 42 112, 56 108 C62 106, 64 103, 64 98 L64 65 Z" fill="url(#g_meat_vignette)"/>

  <!-- Sheen mate muy sutil -->
  <path d="M68 22 C80 18, 102 22, 112 32 C120 40, 118 58, 115 68 C112 78, 106 88, 98 95 C90 102, 78 106, 68 104 C62 103, 60 98, 60 92 L60 65 C60 62, 62 60, 65 60 L65 27 C65 24, 66 22, 68 22 Z" fill="url(#g_meat_sheen)"/>
  <path d="M60 65 C60 62, 58 60, 55 60 L55 72 C44 72, 32 76, 24 84 C18 90, 16 100, 20 106 C26 112, 42 112, 56 108 C62 106, 64 103, 64 98 L64 65 Z" fill="url(#g_meat_sheen)"/>

  <!-- Contorno oscuro fino -->
  <path d="M68 22 C80 18, 102 22, 112 32 C120 40, 118 58, 115 68 C112 78, 106 88, 98 95 C90 102, 78 106, 68 104 C62 103, 60 98, 60 92 L60 65 C60 62, 62 60, 65 60 L65 27 C65 24, 66 22, 68 22 Z" fill="none" stroke="#3a0f0a" stroke-width="1.1" opacity="0.55"/>
  <path d="M60 65 C60 62, 58 60, 55 60 L55 72 C44 72, 32 76, 24 84 C18 90, 16 100, 20 106 C26 112, 42 112, 56 108 C62 106, 64 103, 64 98 L64 65 Z" fill="none" stroke="#3a0f0a" stroke-width="1.1" opacity="0.55"/>

  <!-- Bone shaft highlight (mate) -->
  <rect x="60" y="22" width="4" height="52" rx="2" fill="#fffdf6" fill-opacity="0.26"/>
</svg>
