<svg xmlns="http://www.w3.org/2000/svg" viewBox="0 0 64 64"><path fill="#334155" fill-rule="evenodd" d="M32 6C20.5 6 11 14.2 11 24c0 4.8 2.1 9.1 5.5 12.2L14 52a2 2 0 0 0 2 2h32a2 2 0 0 0 2-2l-2.5-15.8C50.9 33.1 53 28.8 53 24 53 14.2 43.5 6 32 6zm0 6c8.3 0 15 5.4 15 12 0 3.5-1.7 6.6-4.4 8.8a2 2 0 0 0-.7 1.8L44.2 50H19.8l2.3-15.4a2 2 0 0 0-.7-1.8C18.7 30.6 17 27.5 17 24c0-6.6 6.7-12 15-12zm-2 4a2 2 0 0 0-2 2v2h-2a2 2 0 0 0 0 4h2v2a2 2 0 0 0 4 0v-2h2a2 2 0 0 0 0-4h-2v-2a2 2 0 0 0-2-2z"/><path fill="#334155" d="M26 34c0 3.3 2.7 6 6 6s6-2.7 6-6-2.7-6-6-6-6 2.7-6 6zm4 0c0-1.1.9-2 2-2s2 .9 2 2-.9 2-2 2-2-.9-2-2z" fill-rule="evenodd"/></svg>