<svg xmlns="http://www.w3.org/2000/svg" viewBox="0 0 64 64"><g fill="#334155"><ellipse cx="32" cy="22" rx="16" ry="13"/><circle cx="26" cy="19" r="2.5" fill="white"/><circle cx="38" cy="19" r="2.5" fill="white"/><circle cx="26" cy="19" r="1.2" fill="#334155"/><circle cx="38" cy="19" r="1.2" fill="#334155"/><path d="M16 30 Q10 36 8 44 Q7 50 10 52 Q12 53 13 50 Q14 48 13 44 Q15 46 16 50 Q17 54 20 54 Q22 53 21 49 Q20 46 18 42 Q21 45 23 49 Q25 53 28 52 Q30 51 28 47 Q26 43 24 39 Q27 43 28 47 Q29 51 32 51 Q35 51 36 47 Q37 43 35 39 Q37 43 39 47 Q40 51 42 52 Q45 53 46 49 Q47 45 45 42 Q43 46 42 49 Q41 53 44 54 Q47 54 48 50 Q49 46 47 44 Q46 48 47 50 Q48 53 50 52 Q53 50 52 44 Q50 36 44 30"/></g></svg>