<svg xmlns="http://www.w3.org/2000/svg" viewBox="0 0 64 64"><g fill="#334155"><path d="M12 52 C10 50 9 47 10 44 C11 41 14 39 17 39 L20 39 C21 37 21 35 20 33 L18 31 C16 28 16 25 18 22 C20 19 23 18 26 18 L30 18 C32 16 33 13 32 10 C31 8 32 6 34 6 C36 6 37 8 36 10 C37 13 36 17 34 20 L30 22 C28 23 27 25 28 27 L30 29 C32 32 32 36 30 39 L27 41 C26 43 27 46 29 47 L32 48 C35 49 37 52 37 55 C37 58 35 60 32 59 C30 59 29 57 30 55 C29 53 27 52 25 52 L22 52 C20 54 17 55 15 54 C13 53 12 52 12 52Z" fill-rule="evenodd"/><ellipse cx="34" cy="7" rx="3" ry="2.5"/><ellipse cx="29" cy="20" rx="3.5" ry="2.5"/><ellipse cx="29" cy="30" rx="3.5" ry="2.5"/><ellipse cx="28" cy="41" rx="3.5" ry="2.5"/><ellipse cx="31" cy="52" rx="3.5" ry="2.5"/><path d="M12 52 C10 50 9 47 10 44 C11 41 14 39 17 39 L20 39 C21 37 21 35 20 33 L18 31 C16 28 16 25 18 22 C20 19 23 18 26 18 L30 18 C32 16 33 13 32 10 C31 8 32 6 34 6 C36 6 37 8 36 10 C37 13 36 17 34 20 L30 22 C28 23 27 25 28 27 L30 29 C32 32 32 36 30 39 L27 41 C26 43 27 46 29 47 L32 48 C35 49 37 52 37 55 C37 58 35 60 32 59 C30 59 29 57 30 55 C29 53 27 52 25 52 L22 52 C20 54 17 55 15 54 C13 53 12 52 12 52Z" fill="none"/></g><g fill="#334155"><path d="M34 5 C32 5 30 6.5 30.5 9 C31 11.5 33 12.5 35 11.5 C37 10.5 37.5 8 36 6.5 C35.5 5.8 34.8 5 34 5Z"/><path d="M26 16 C23 16 20 17.5 18.5 20.5 C17 23.5 17.5 27 19.5 29.5 L22 32 C23.5 34.5 23.5 37.5 22 40 L18 40 C15 40 12 42 11 45 C10 48 11.5 51.5 14 53.5 C16 55 18.5 55 21 54 L24 54 C26.5 55 28 57 27.5 59 C27 61 29 62 31 61.5 C33 61 34.5 59 34.5 57 C34.5 54.5 33 52 31 50.5 L28 49 C26 48 25 45.5 26 43.5 L29.5 40.5 C32 38 33 34 31.5 31 L29.5 28.5 C28 26 28.5 23 30.5 21.5 L34.5 19.5 C36.5 18 38 15.5 37.5 12.5 L37 10.5 C36.5 8 35 7 33.5 7 C32 7 31 8 31 9.5 C31 10.5 31.5 11.5 32.5 12 C33.5 14.5 32.5 17 30.5 18 L26 18 C26 18 26 16 26 16Z"/></g></svg>