<svg xmlns="http://www.w3.org/2000/svg" viewBox="0 0 128 128">
  <defs>
    <radialGradient id="g_pork_meat" cx="45%" cy="40%" r="58%" fx="38%" fy="32%">
      <stop offset="0%" stop-color="#e0978c"/>
      <stop offset="40%" stop-color="#cf7669"/>
      <stop offset="75%" stop-color="#b95a4d"/>
      <stop offset="100%" stop-color="#9c4438"/>
    </radialGradient>
    <radialGradient id="g_pork_highlight" cx="38%" cy="28%" r="34%">
      <stop offset="0%" stop-color="#ffffff" stop-opacity="0.16"/>
      <stop offset="100%" stop-color="#ffffff" stop-opacity="0"/>
    </radialGradient>
    <linearGradient id="g_pork_fat1" x1="0%" y1="0%" x2="100%" y2="100%">
      <stop offset="0%" stop-color="#f6ece2"/>
      <stop offset="50%" stop-color="#efe0d2"/>
      <stop offset="100%" stop-color="#e3cdba"/>
    </linearGradient>
    <radialGradient id="g_pork_bone" cx="50%" cy="35%" r="55%">
      <stop offset="0%" stop-color="#fbf4e7"/>
      <stop offset="40%" stop-color="#efe1c8"/>
      <stop offset="100%" stop-color="#d2be98"/>
    </radialGradient>
    <radialGradient id="g_pork_boneball" cx="40%" cy="35%" r="50%">
      <stop offset="0%" stop-color="#fbf5e9"/>
      <stop offset="60%" stop-color="#e6d8bc"/>
      <stop offset="100%" stop-color="#c2aa7a"/>
    </radialGradient>
    <linearGradient id="g_pork_shadow" x1="0%" y1="0%" x2="0%" y2="100%">
      <stop offset="0%" stop-color="#7d2018" stop-opacity="0"/>
      <stop offset="100%" stop-color="#5e130d" stop-opacity="0.34"/>
    </linearGradient>
    <radialGradient id="g_pork_vignette" cx="52%" cy="50%" r="52%">
      <stop offset="62%" stop-color="#000000" stop-opacity="0"/>
      <stop offset="100%" stop-color="#3a120b" stop-opacity="0.26"/>
    </radialGradient>
    <filter id="soft" x="-30%" y="-30%" width="160%" height="160%">
      <feGaussianBlur stdDeviation="1.0"/>
    </filter>
    <clipPath id="clip_pork">
      <path d="M 34 52 Q 32 72 36 88 Q 42 104 60 110 Q 76 114 88 104 Q 100 94 98 76 Q 96 60 88 52 Q 82 44 74 42 Q 68 40 60 42 Q 46 44 34 52 Z"/>
    </clipPath>
  </defs>

  <!-- Hueso -->
  <rect x="72" y="18" width="14" height="56" rx="7" ry="7" fill="url(#g_pork_bone)" stroke="#bba572" stroke-width="1"/>
  <ellipse cx="79" cy="20" rx="13" ry="12" fill="url(#g_pork_boneball)" stroke="#bba572" stroke-width="1"/>
  <ellipse cx="75" cy="16" rx="4.5" ry="3.5" fill="#fffdf6" fill-opacity="0.45"/>
  <ellipse cx="79" cy="72" rx="13" ry="12" fill="url(#g_pork_boneball)" stroke="#bba572" stroke-width="1"/>
  <ellipse cx="75" cy="68" rx="4.5" ry="3.5" fill="#fffdf6" fill-opacity="0.4"/>

  <!-- Cofia de grasa -->
  <path d="M 30 52 Q 28 34 40 26 Q 54 18 70 22 Q 78 24 79 32 Q 76 30 68 28 Q 54 24 42 30 Q 34 36 34 52 Z"
        fill="url(#g_pork_fat1)" stroke="#c3a684" stroke-width="0.8"/>

  <!-- Cuerpo de la chuleta -->
  <path d="M 34 52 Q 32 72 36 88 Q 42 104 60 110 Q 76 114 88 104 Q 100 94 98 76 Q 96 60 88 52 Q 82 44 74 42 Q 68 40 60 42 Q 46 44 34 52 Z"
        fill="url(#g_pork_meat)" stroke="#8f3428" stroke-width="1.1"/>

  <path d="M 34 52 Q 32 72 36 88 Q 42 104 60 110 Q 76 114 88 104 Q 100 94 98 76 Q 96 60 88 52 Q 82 44 74 42 Q 68 40 60 42 Q 46 44 34 52 Z"
        fill="url(#g_pork_shadow)"/>

  <!-- Marmoleo suave desenfocado -->
  <g clip-path="url(#clip_pork)" filter="url(#soft)" opacity="0.5">
    <path d="M 50 55 Q 60 51 70 57 Q 66 62 58 60 Q 50 59 50 55 Z" fill="#f4e7dd"/>
    <path d="M 46 72 Q 56 68 66 73 Q 60 78 52 76 Q 46 75 46 72 Z" fill="#efe0d3"/>
    <path d="M 62 84 Q 72 80 80 85 Q 74 89 66 87 Q 62 86 62 84 Z" fill="#efe0d3"/>
    <ellipse cx="48" cy="84" rx="5" ry="2.6" fill="#efe0d3"/>
  </g>

  <!-- Vignette + sheen mate -->
  <path d="M 34 52 Q 32 72 36 88 Q 42 104 60 110 Q 76 114 88 104 Q 100 94 98 76 Q 96 60 88 52 Q 82 44 74 42 Q 68 40 60 42 Q 46 44 34 52 Z"
        fill="url(#g_pork_vignette)"/>
  <path d="M 34 52 Q 32 72 36 88 Q 42 104 60 110 Q 76 114 88 104 Q 100 94 98 76 Q 96 60 88 52 Q 82 44 74 42 Q 68 40 60 42 Q 46 44 34 52 Z"
        fill="url(#g_pork_highlight)"/>
</svg>
