<svg xmlns="http://www.w3.org/2000/svg" viewBox="0 0 64 64"><g fill="#334155"><ellipse cx="32" cy="38" rx="16" ry="13"/><ellipse cx="32" cy="22" rx="9" ry="8"/><path d="M32 14 Q34 8 38 6 Q35 10 36 14 Z"/><path d="M32 14 Q30 7 26 7 Q29 11 28 14 Z"/><path d="M32 14 Q36 6 41 8 Q37 12 36 14 Z"/><ellipse cx="28" cy="20" rx="2" ry="2.5" fill-rule="evenodd"/><circle cx="28" cy="19.5" r="1" fill="#fff"/><path d="M16 44 Q10 50 8 58 Q14 52 20 48 Z"/><path d="M48 44 Q54 50 56 58 Q50 52 44 48 Z"/><path d="M24 48 Q20 56 18 60 Q24 54 28 50 Z"/><path d="M40 48 Q44 56 46 60 Q40 54 36 50 Z"/><path d="M16 35 Q8 32 6 28 Q12 30 20 34 Z"/><ellipse cx="42" cy="26" rx="6" ry="4" transform="rotate(-20 42 26)"/></g></svg>