<svg xmlns="http://www.w3.org/2000/svg" viewBox="0 0 128 128">
  <defs>
    <linearGradient id="g_rabbit_body" x1="0.2" y1="0" x2="0.8" y2="1">
      <stop offset="0%" stop-color="#d0d0d0"/>
      <stop offset="40%" stop-color="#b0b0b0"/>
      <stop offset="100%" stop-color="#7a7a7a"/>
    </linearGradient>
    <radialGradient id="g_rabbit_belly" cx="0.45" cy="0.4" r="0.55">
      <stop offset="0%" stop-color="#e8e8e8"/>
      <stop offset="100%" stop-color="#c2c2c2"/>
    </radialGradient>
    <linearGradient id="g_rabbit_ear1" x1="0" y1="0" x2="1" y2="1">
      <stop offset="0%" stop-color="#cccccc"/>
      <stop offset="100%" stop-color="#8a8a8a"/>
    </linearGradient>
    <linearGradient id="g_rabbit_ear2" x1="0" y1="0" x2="1" y2="1">
      <stop offset="0%" stop-color="#cccccc"/>
      <stop offset="100%" stop-color="#8a8a8a"/>
    </linearGradient>
    <linearGradient id="g_rabbit_innerear" x1="0" y1="0" x2="1" y2="1">
      <stop offset="0%" stop-color="#f4b8c0"/>
      <stop offset="100%" stop-color="#d47a88"/>
    </linearGradient>
    <radialGradient id="g_rabbit_eye" cx="0.35" cy="0.3" r="0.6">
      <stop offset="0%" stop-color="#8b3a3a"/>
      <stop offset="60%" stop-color="#4a1a1a"/>
      <stop offset="100%" stop-color="#1a0a0a"/>
    </radialGradient>
    <linearGradient id="g_rabbit_head" x1="0.1" y1="0" x2="0.9" y2="1">
      <stop offset="0%" stop-color="#d4d4d4"/>
      <stop offset="50%" stop-color="#b8b8b8"/>
      <stop offset="100%" stop-color="#888888"/>
    </linearGradient>
    <linearGradient id="g_rabbit_leg" x1="0" y1="0" x2="0" y2="1">
      <stop offset="0%" stop-color="#b0b0b0"/>
      <stop offset="100%" stop-color="#787878"/>
    </linearGradient>
    <radialGradient id="g_rabbit_nose" cx="0.4" cy="0.35" r="0.55">
      <stop offset="0%" stop-color="#f08090"/>
      <stop offset="100%" stop-color="#c04060"/>
    </radialGradient>
    <radialGradient id="g_rabbit_highlight" cx="0.3" cy="0.25" r="0.5">
      <stop offset="0%" stop-color="rgba(255,255,255,0.55)"/>
      <stop offset="100%" stop-color="rgba(255,255,255,0)"/>
    </radialGradient>
  </defs>

  <!-- Ear 1 (back ear, slightly offset) -->
  <ellipse cx="52" cy="28" rx="7" ry="22" transform="rotate(-8,52,28)" fill="url(#g_rabbit_ear2)" stroke="#666" stroke-width="0.7"/>
  <ellipse cx="52" cy="30" rx="3.5" ry="16" transform="rotate(-8,52,30)" fill="url(#g_rabbit_innerear)" opacity="0.7"/>

  <!-- Ear 2 (front ear) -->
  <ellipse cx="66" cy="24" rx="7" ry="24" transform="rotate(6,66,24)" fill="url(#g_rabbit_ear1)" stroke="#555" stroke-width="0.8"/>
  <ellipse cx="66" cy="26" rx="3.5" ry="18" transform="rotate(6,66,26)" fill="url(#g_rabbit_innerear)"/>

  <!-- Body -->
  <ellipse cx="58" cy="90" rx="30" ry="28" fill="url(#g_rabbit_body)" stroke="#555" stroke-width="1"/>
  <!-- Belly highlight -->
  <ellipse cx="53" cy="88" rx="16" ry="18" fill="url(#g_rabbit_belly)" opacity="0.7"/>

  <!-- Tail -->
  <circle cx="90" cy="98" r="9" fill="#e0e0e0" stroke="#999" stroke-width="0.8"/>
  <circle cx="88" cy="96" r="4" fill="rgba(255,255,255,0.6)"/>

  <!-- Hind leg -->
  <ellipse cx="72" cy="113" rx="18" ry="8" fill="url(#g_rabbit_leg)" stroke="#555" stroke-width="0.8"/>

  <!-- Front leg -->
  <ellipse cx="38" cy="108" rx="8" ry="14" transform="rotate(10,38,108)" fill="url(#g_rabbit_leg)" stroke="#555" stroke-width="0.8"/>

  <!-- Head -->
  <ellipse cx="55" cy="60" rx="22" ry="20" fill="url(#g_rabbit_head)" stroke="#555" stroke-width="1"/>

  <!-- Head highlight -->
  <ellipse cx="47" cy="52" rx="10" ry="8" fill="url(#g_rabbit_highlight)"/>

  <!-- Cheek puff -->
  <ellipse cx="43" cy="66" rx="10" ry="7" fill="#c8c8c8" opacity="0.6"/>

  <!-- Eye -->
  <circle cx="44" cy="57" r="5.5" fill="url(#g_rabbit_eye)" stroke="#2a0a0a" stroke-width="0.6"/>
  <circle cx="42.5" cy="55.5" r="1.5" fill="rgba(255,255,255,0.7)"/>

  <!-- Nose -->
  <ellipse cx="36" cy="67" rx="4" ry="3" fill="url(#g_rabbit_nose)" stroke="#9a2040" stroke-width="0.5"/>

  <!-- Mouth lines -->
  <path d="M36 70 Q33 73 31 72" fill="none" stroke="#9a5060" stroke-width="0.9" stroke-linecap="round"/>
  <path d="M36 70 Q38 73 40 72" fill="none" stroke="#9a5060" stroke-width="0.9" stroke-linecap="round"/>

  <!-- Whiskers -->
  <line x1="34" y1="66" x2="14" y2="62" stroke="#888" stroke-width="0.7" opacity="0.8"/>
  <line x1="34" y1="67" x2="14" y2="67" stroke="#888" stroke-width="0.7" opacity="0.8"/>
  <line x1="34" y1="68" x2="14" y2="72" stroke="#888" stroke-width="0.7" opacity="0.8"/>

  <!-- Body highlight -->
  <ellipse cx="45" cy="77" rx="10" ry="8" fill="rgba(255,255,255,0.2)"/>
</svg>