<svg xmlns="http://www.w3.org/2000/svg" viewBox="0 0 64 64"><path fill="#334155" fill-rule="evenodd" d="M26 6 c-1 0-2 1-2 2 l0 14 c0 2 1 3 2 3 l4 0 c1 0 2-1 2-3 l0-14 c0-1-1-2-2-2 z M36 8 c-1-1-2 0-3 1 l-4 13 c-1 2 0 3 1 4 l4 1 c1 0 2-1 3-2 l4-13 c0-1 0-3-1-3 z M32 34 c-8 0-15 5-15 12 l0 7 c0 2 1 3 3 3 l24 0 c2 0 3-1 3-3 l0-7 c0-7-7-12-15-12 z M32 26 c-5 0-9 3-9 8 l0 2 c0 5 4 8 9 8 c5 0 9-3 9-8 l0-2 c0-5-4-8-9-8 z M22 44 c-2 0-4 2-6 5 c-1 2-1 4 1 5 c1 0 2 0 3-1 c2-2 4-5 4-7 c0-1-1-2-2-2 z M42 44 c-1 0-2 1-2 2 c0 2 2 5 4 7 c1 1 2 1 3 1 c2-1 2-3 1-5 c-2-3-4-5-6-5 z M29 30 c0 1 1 2 2 2 c1 0 2-1 2-2 c0-1-1-2-2-2 c-1 0-2 1-2 2 z"/></svg>