<svg xmlns="http://www.w3.org/2000/svg" viewBox="0 0 64 64"><g fill="#334155"><path d="M18 8 C14 8 10 11 10 15 C10 18 12 20 14 21 L14 43 C14 45 16 47 18 47 C20 47 22 45 22 43 L22 21 C24 20 26 18 26 15 C26 11 22 8 18 8 Z M18 11 C20.5 11 23 12.8 23 15 C23 17 21.5 18.5 19.5 18.9 L19.5 43 C19.5 43.8 18.8 44.5 18 44.5 C17.2 44.5 16.5 43.8 16.5 43 L16.5 18.9 C14.5 18.5 13 17 13 15 C13 12.8 15.5 11 18 11 Z"/><path d="M32 6 C28 6 24 9 24 13 C24 16 26 18 28 19 L28 43 C28 45 30 47 32 47 C34 47 36 45 36 43 L36 19 C38 18 40 16 40 13 C40 9 36 6 32 6 Z M32 9 C34.5 9 37 10.8 37 13 C37 15 35.5 16.5 33.5 16.9 L33.5 43 C33.5 43.8 32.8 44.5 32 44.5 C31.2 44.5 30.5 43.8 30.5 43 L30.5 16.9 C28.5 16.5 27 15 27 13 C27 10.8 29.5 9 32 9 Z"/><path d="M46 8 C42 8 38 11 38 15 C38 18 40 20 42 21 L42 43 C42 45 44 47 46 47 C48 47 50 45 50 43 L50 21 C52 20 54 18 54 15 C54 11 50 8 46 8 Z M46 11 C48.5 11 51 12.8 51 15 C51 17 49.5 18.5 47.5 18.9 L47.5 43 C47.5 43.8 46.8 44.5 46 44.5 C45.2 44.5 44.5 43.8 44.5 43 L44.5 18.9 C42.5 18.5 41 17 41 15 C41 12.8 43.5 11 46 11 Z"/><rect x="9" y="43" width="46" height="6" rx="3"/><rect x="11" y="52" width="42" height="5" rx="2.5"/></g></svg>