<svg xmlns="http://www.w3.org/2000/svg" viewBox="0 0 64 64"><g fill="#334155"><ellipse cx="16" cy="20" rx="8" ry="11" transform="rotate(-30 16 20)"/><rect x="21" y="14" width="5" height="4" rx="1.5" transform="rotate(-30 21 14)"/><ellipse cx="32" cy="18" rx="8" ry="11" transform="rotate(-30 32 18)"/><rect x="37" y="12" width="5" height="4" rx="1.5" transform="rotate(-30 37 12)"/><ellipse cx="48" cy="16" rx="8" ry="11" transform="rotate(-30 48 16)"/><ellipse cx="16" cy="44" rx="8" ry="11" transform="rotate(30 16 44)"/><rect x="21" y="46" width="5" height="4" rx="1.5" transform="rotate(30 21 46)"/><ellipse cx="32" cy="46" rx="8" ry="11" transform="rotate(30 32 46)"/><rect x="37" y="48" width="5" height="4" rx="1.5" transform="rotate(30 37 48)"/><ellipse cx="48" cy="48" rx="8" ry="11" transform="rotate(30 48 48)"/><path d="M32 26 C28 28 28 36 32 38 C36 36 36 28 32 26Z"/></g></svg>