<svg xmlns="http://www.w3.org/2000/svg" viewBox="0 0 64 64"><g fill="#334155"><path d="M28 8 C16 8 8 16 8 26 C8 32 11 37 16 40 L14 42 L12 44 L16 44 L18 42 L20 44 L24 44 L22 42 L24 40 C26 41 28 42 30 42 C38 42 46 35 46 26 C46 16 38 8 28 8 Z M28 11 C36 11 43 18 43 26 C43 34 37 39 30 39 C28 39 26 38 24 37 L26 35 C27 36 29 37 30 37 C36 37 41 32 41 26 C41 20 36 15 28 15 C22 15 17 19 17 25 C17 27 18 29 19 31 L17 33 C15 31 14 28 14 26 C14 18 20 11 28 11 Z" fill-rule="evenodd"/><path d="M28 18 C23 18 20 21 20 25 C20 27 21 29 23 31 L21 33 C19 31 17 28 17 25 C17 19 22 15 28 15 C34 15 39 20 39 26 C39 31 35 35 30 36 L29 33 C33 32 36 29 36 26 C36 22 32 18 28 18 Z" fill-rule="evenodd"/><ellipse cx="28" cy="26" rx="5" ry="5"/><path d="M38 34 C40 30 48 28 54 32 C58 34 58 40 54 44 C52 46 50 47 48 47 L46 56 L43 55 L45 46 C42 45 40 43 39 41 C37 39 36 36 38 34 Z M40 35 C39 37 40 39 41 41 C42 43 44 44 47 45 L45 54 L46 54 L48 44 C50 44 52 43 54 42 C57 39 57 35 54 33 C49 30 42 32 40 35 Z" fill-rule="evenodd"/><ellipse cx="47" cy="38" rx="4" ry="5" transform="rotate(-20 47 38)"/><circle cx="44" cy="36" r="1.5"/></g></svg>