<svg xmlns="http://www.w3.org/2000/svg" viewBox="0 0 64 64"><g fill="#334155"><path d="M38 7c-1.5 0-3 .6-4.1 1.7C31.7 10.8 31 13 31 15c0 1.2.3 2.4.8 3.4L18 32.5C14.8 35.7 13 40 13 44.5c0 4.6 1.8 8.9 5 12.1l1.4-1.4C16.6 52.4 15 48.6 15 44.5c0-4 1.6-7.8 4.4-10.6L33.2 20c.5.3 1.1.5 1.8.5 2.2 0 4-1.8 4-4 0-.5-.1-1-.3-1.5l2.8-2.8c.6.2 1.1.3 1.7.3 2.8 0 5-2.2 5-5s-2.2-5-5-5z"/><path d="M38 7c-1.5 0-3 .6-4.1 1.7C31.7 10.8 31 13 31 15c0 1.2.3 2.4.8 3.4L18 32.5C14.8 35.7 13 40 13 44.5c0 4.6 1.8 8.9 5 12.1l1.4-1.4C16.6 52.4 15 48.6 15 44.5c0-4 1.6-7.8 4.4-10.6L33.2 20c.5.3 1.1.5 1.8.5 2.2 0 4-1.8 4-4 0-.5-.1-1-.3-1.5l2.8-2.8c.6.2 1.1.3 1.7.3 2.8 0 5-2.2 5-5s-2.2-5-5-5z" fill="none"/><path d="M43 6c-3.3 0-6 2.7-6 6 0 .8.2 1.6.5 2.3l-3.2 3.2c-.5-.1-1-.2-1.3-.2-1.1 0-2 .9-2 2s.9 2 2 2c.4 0 .8-.1 1.1-.3L20.8 33.3C17.6 36.5 16 40.4 16 44.5s1.6 8 4.4 10.8c.8.8 1.7 1.5 2.6 2.1l1-1.7c-.8-.5-1.5-1.1-2.2-1.8C19.4 51.5 18 48.1 18 44.5c0-3.6 1.4-7 4-9.5L35.5 21.4c.5.4 1.1.6 1.8.6 1.7 0 3-1.3 3-3 0-.4-.1-.8-.2-1.2l3.4-3.4c.5.1.9.2 1.5.2 2.2 0 4-1.8 4-4s-1.8-4-4-4z"/><path d="M43 8c-2.2 0-4 1.8-4 4 0 .6.1 1.2.4 1.7l-3.6 3.6c-.3-.1-.5-.1-.8-.1-.6 0-1 .4-1 1s.4 1 1 1c.2 0 .4-.1.6-.2L23.4 31.2C19.9 34.6 18 39.4 18 44.5c0 4.2 1.4 8.1 3.9 11.3l1.5-1.2C21.2 51.7 20 48.2 20 44.5c0-4.5 1.7-8.8 4.8-11.9L37 20.4c.4.4.9.6 1.5.6 1.1 0 2-.9 2-2 0-.3-.1-.6-.2-.9l3.8-3.8c.3.1.6.1.9.1 1.1 0 2-.9 2-2s-.9-2-2-2z"/><path fill-rule="evenodd" d="M44 6a5 5 0 1 0 0 10A5 5 0 0 0 44 6zm0 2a3 3 0 1 1 0 6 3 3 0 0 1 0-6z"/><path d="M44 9a2 2 0 1 0 0 4 2 2 0 0 0 0-4z"/><path d="M20 51c-.8-1.7-1.3-3.6-1.3-5.5 0-2.2.6-4.3 1.6-6.1l1.7 1c-.9 1.5-1.3 3.3-1.3 5.1 0 1.6.4 3.2 1.1 4.6L20 51z"/><path d="M25 55.5c-1.2-.7-2.3-1.6-3.2-2.7l1.5-1.2c.8.9 1.7 1.7 2.7 2.2L25 55.5z"/><path d="M33 8c0-1.1.9-2 2-2s2 .9 2 2-.9 2-2 2-2-.9-2-2z"/><path d="M28 6c0-1.1.9-2 2-2s2 .9 2 2-.9 2-2 2-2-.9-2-2z"/><path d="M38.5 8.5 36 11l1.4 1.4 2.5-2.5z"/><path d="M24 37l-1.5 1.5 1.4 1.4L25.4 38.4z"/><path d="M27 34l-1.5 1.5 1.4 1.4 1.5-1.5z"/><path d="M30 31l-1.5 1.5 1.4 1.4 1.5-1.5z"/></g></svg>