<svg xmlns="http://www.w3.org/2000/svg" viewBox="0 0 64 64"><path fill="#334155" fill-rule="evenodd" d="M32 6 C24 6 18 12 17 20 L15 38 C14 46 18 54 26 57 C28 58 30 58 32 58 C34 58 36 58 38 57 C46 54 50 46 49 38 L47 20 C46 12 40 6 32 6 Z M32 10 C38 10 43 14 44 20 L46 38 C47 44 44 50 38 53 C36 54 34 54 32 54 C30 54 28 54 26 53 C20 50 17 44 18 38 L20 20 C21 14 26 10 32 10 Z M32 14 C28 14 24 17 23 21 L21 37 C20 43 23 48 28 51 C29.5 51.8 31 52 32 52 C33 52 34.5 51.8 36 51 C41 48 44 43 43 37 L41 21 C40 17 36 14 32 14 Z"/></svg>