<svg xmlns="http://www.w3.org/2000/svg" viewBox="0 0 128 128">
  <defs>
    <radialGradient id="g_tripe_base" cx="50%" cy="45%" r="52%" fx="40%" fy="35%">
      <stop offset="0%" stop-color="#f5e6c8"/>
      <stop offset="40%" stop-color="#e8d0a0"/>
      <stop offset="80%" stop-color="#d4b87a"/>
      <stop offset="100%" stop-color="#b8965a"/>
    </radialGradient>
    <radialGradient id="g_tripe_highlight" cx="35%" cy="30%" r="35%">
      <stop offset="0%" stop-color="#fffae8" stop-opacity="0.85"/>
      <stop offset="100%" stop-color="#fffae8" stop-opacity="0"/>
    </radialGradient>
    <linearGradient id="g_tripe_shadow" x1="0%" y1="0%" x2="0%" y2="100%">
      <stop offset="0%" stop-color="#c9a96e" stop-opacity="0"/>
      <stop offset="100%" stop-color="#7a5c30" stop-opacity="0.45"/>
    </linearGradient>
    <radialGradient id="g_tripe_cell" cx="50%" cy="40%" r="50%">
      <stop offset="0%" stop-color="#f0d9a8"/>
      <stop offset="100%" stop-color="#c8a060"/>
    </radialGradient>
    <radialGradient id="g_tripe_steam1" cx="50%" cy="100%" r="50%">
      <stop offset="0%" stop-color="#d4b87a" stop-opacity="0.3"/>
      <stop offset="100%" stop-color="#d4b87a" stop-opacity="0"/>
    </radialGradient>
    <linearGradient id="g_tripe_rim" x1="0%" y1="0%" x2="0%" y2="100%">
      <stop offset="0%" stop-color="#e8d0a0"/>
      <stop offset="100%" stop-color="#a07840"/>
    </linearGradient>
  </defs>

  <!-- Main tripe body - folded/rolled piece -->
  <ellipse cx="64" cy="68" rx="50" ry="38" fill="url(#g_tripe_base)" stroke="#8a6030" stroke-width="1.2"/>

  <!-- Honeycomb texture layer - rows of hexagonal cells -->
  <!-- Row 1 -->
  <polygon points="36,48 40,45 44,48 44,54 40,57 36,54" fill="url(#g_tripe_cell)" stroke="#8a6030" stroke-width="0.8" opacity="0.85"/>
  <polygon points="44,48 48,45 52,48 52,54 48,57 44,54" fill="url(#g_tripe_cell)" stroke="#8a6030" stroke-width="0.8" opacity="0.85"/>
  <polygon points="52,48 56,45 60,48 60,54 56,57 52,54" fill="url(#g_tripe_cell)" stroke="#8a6030" stroke-width="0.8" opacity="0.85"/>
  <polygon points="60,48 64,45 68,48 68,54 64,57 60,54" fill="url(#g_tripe_cell)" stroke="#8a6030" stroke-width="0.8" opacity="0.85"/>
  <polygon points="68,48 72,45 76,48 76,54 72,57 68,54" fill="url(#g_tripe_cell)" stroke="#8a6030" stroke-width="0.8" opacity="0.85"/>
  <polygon points="76,48 80,45 84,48 84,54 80,57 76,54" fill="url(#g_tripe_cell)" stroke="#8a6030" stroke-width="0.8" opacity="0.85"/>

  <!-- Row 2 (offset) -->
  <polygon points="32,57 36,54 40,57 40,63 36,66 32,63" fill="url(#g_tripe_cell)" stroke="#8a6030" stroke-width="0.8" opacity="0.85"/>
  <polygon points="40,57 44,54 48,57 48,63 44,66 40,63" fill="url(#g_tripe_cell)" stroke="#8a6030" stroke-width="0.8" opacity="0.85"/>
  <polygon points="48,57 52,54 56,57 56,63 52,66 48,63" fill="url(#g_tripe_cell)" stroke="#8a6030" stroke-width="0.8" opacity="0.85"/>
  <polygon points="56,57 60,54 64,57 64,63 60,66 56,63" fill="url(#g_tripe_cell)" stroke="#8a6030" stroke-width="0.8" opacity="0.85"/>
  <polygon points="64,57 68,54 72,57 72,63 68,66 64,63" fill="url(#g_tripe_cell)" stroke="#8a6030" stroke-width="0.8" opacity="0.85"/>
  <polygon points="72,57 76,54 80,57 80,63 76,66 72,63" fill="url(#g_tripe_cell)" stroke="#8a6030" stroke-width="0.8" opacity="0.85"/>
  <polygon points="80,57 84,54 88,57 88,63 84,66 80,63" fill="url(#g_tripe_cell)" stroke="#8a6030" stroke-width="0.8" opacity="0.85"/>

  <!-- Row 3 -->
  <polygon points="36,66 40,63 44,66 44,72 40,75 36,72" fill="url(#g_tripe_cell)" stroke="#8a6030" stroke-width="0.8" opacity="0.85"/>
  <polygon points="44,66 48,63 52,66 52,72 48,75 44,72" fill="url(#g_tripe_cell)" stroke="#8a6030" stroke-width="0.8" opacity="0.85"/>
  <polygon points="52,66 56,63 60,66 60,72 56,75 52,72" fill="url(#g_tripe_cell)" stroke="#8a6030" stroke-width="0.8" opacity="0.85"/>
  <polygon points="60,66 64,63 68,66 68,72 64,75 60,72" fill="url(#g_tripe_cell)" stroke="#8a6030" stroke-width="0.8" opacity="0.85"/>
  <polygon points="68,66 72,63 76,66 76,72 72,75 68,72" fill="url(#g_tripe_cell)" stroke="#8a6030" stroke-width="0.8" opacity="0.85"/>
  <polygon points="76,66 80,63 84,66 84,72 80,75 76,72" fill="url(#g_tripe_cell)" stroke="#8a6030" stroke-width="0.8" opacity="0.85"/>

  <!-- Row 4 (offset, partial) -->
  <polygon points="40,75 44,72 48,75 48,81 44,84 40,81" fill="url(#g_tripe_cell)" stroke="#8a6030" stroke-width="0.8" opacity="0.85"/>
  <polygon points="48,75 52,72 56,75 56,81 52,84 48,81" fill="url(#g_tripe_cell)" stroke="#8a6030" stroke-width="0.8" opacity="0.85"/>
  <polygon points="56,75 60,72 64,75 64,81 60,84 56,81" fill="url(#g_tripe_cell)" stroke="#8a6030" stroke-width="0.8" opacity="0.85"/>
  <polygon points="64,75 68,72 72,75 72,81 68,84 64,81" fill="url(#g_tripe_cell)" stroke="#8a6030" stroke-width="0.8" opacity="0.85"/>
  <polygon points="72,75 76,72 80,75 80,81 76,84 72,81" fill="url(#g_tripe_cell)" stroke="#8a6030" stroke-width="0.8" opacity="0.85"/>

  <!-- Overall shadow gradient overlay -->
  <ellipse cx="64" cy="68" rx="50" ry="38" fill="url(#g_tripe_shadow)" stroke="none"/>

  <!-- Highlight/sheen -->
  <ellipse cx="64" cy="68" rx="50" ry="38" fill="url(#g_tripe_highlight)" stroke="none"/>

  <!-- Top folded rim of the tripe piece -->
  <path d="M24,55 Q35,38 55,34 Q75,30 90,40 Q100,47 95,58" fill="none" stroke="url(#g_tripe_rim)" stroke-width="3.5" stroke-linecap="round"/>
  <path d="M24,55 Q35,38 55,34 Q75,30 90,40 Q100,47 95,58" fill="none" stroke="#f5e6c8" stroke-width="1.5" stroke-linecap="round" opacity="0.6"/>

  <!-- Subtle inner fold line -->
  <path d="M30,62 Q50,50 70,52 Q85,54 92,64" fill="none" stroke="#9a7040" stroke-width="1" stroke-linecap="round" opacity="0.5"/>

  <!-- Bottom shadow under the piece -->
  <ellipse cx="64" cy="104" rx="42" ry="6" fill="#7a5c30" opacity="0.18"/>
</svg>