<svg xmlns="http://www.w3.org/2000/svg" viewBox="0 0 64 64"><g fill="#334155"><path d="M12 20 Q10 28 11 36 Q12 46 18 52 Q24 58 32 57 Q40 58 46 52 Q52 46 53 36 Q54 28 52 20 Q50 14 44 10 Q38 6 32 6 Q26 6 20 10 Q14 14 12 20Z" fill-rule="evenodd"/><path d="M12 20 Q10 28 11 36 Q12 46 18 52 Q24 58 32 57 Q40 58 46 52 Q52 46 53 36 Q54 28 52 20 Q50 14 44 10 Q38 6 32 6 Q26 6 20 10 Q14 14 12 20Z M18 22 Q17 28 18 34 Q19 42 24 47 Q29 52 32 51 Q35 52 40 47 Q45 42 46 34 Q47 28 46 22 Q44 17 39 14 Q35 11 32 11 Q29 11 25 14 Q20 17 18 22Z" fill-rule="evenodd"/><circle cx="24" cy="22" r="2.5"/><circle cx="32" cy="18" r="2.5"/><circle cx="40" cy="22" r="2.5"/><circle cx="44" cy="31" r="2.5"/><circle cx="40" cy="40" r="2.5"/><circle cx="32" cy="44" r="2.5"/><circle cx="24" cy="40" r="2.5"/><circle cx="20" cy="31" r="2.5"/><circle cx="28" cy="30" r="2"/><circle cx="36" cy="30" r="2"/><circle cx="32" cy="36" r="2"/></g></svg>