<svg xmlns="http://www.w3.org/2000/svg" viewBox="0 0 64 64"><g fill="#334155" fill-rule="evenodd"><ellipse cx="32" cy="36" rx="18" ry="16"/><ellipse cx="32" cy="22" rx="10" ry="9"/><ellipse cx="24" cy="16" rx="5" ry="4"/><ellipse cx="24" cy="13" rx="3" ry="2.5"/><path d="M28 14 Q26 10 22 9 Q20 8 21 11 Q22 13 25 14 Z"/><ellipse cx="32" cy="50" rx="5" ry="3"/><rect x="29" y="50" width="6" height="5" rx="2"/><ellipse cx="26" cy="53" rx="2.5" ry="1.5"/><ellipse cx="38" cy="53" rx="2.5" ry="1.5"/><path d="M14 38 Q8 36 7 42 Q6 47 12 46 Q16 45 17 40 Z"/><path d="M50 38 Q56 36 57 42 Q58 47 52 46 Q48 45 47 40 Z"/><ellipse cx="32" cy="36" rx="8" ry="7" fill="#334155" fill-opacity="0"/><path d="M24 30 Q32 27 40 30 Q38 24 32 23 Q26 24 24 30 Z" fill-rule="evenodd"/></g></svg>